# This file uses centimeters as units for non-parametric coordinates.

mtllib rockOnIcon.mtl
v 3.331118 -0.951057 -3.748205
v 4.121688 -0.587785 -2.957635
v 4.121688 0.587785 -2.957635
v 3.331118 0.951057 -3.748205
v 2.842520 0.000000 -4.236803
v 2.135413 0.000000 -2.115483
v -3.314608 -0.951057 3.748205
v -4.105177 -0.587785 2.957635
v -4.105177 0.587785 2.957635
v -3.314608 0.951057 3.748205
v -2.826009 0.000000 4.236804
v -2.118902 0.000000 2.115483
v 3.331118 0.951057 3.748205
v 4.121688 0.587785 2.957635
v 4.121688 -0.587785 2.957635
v 3.331118 -0.951057 3.748205
v 2.842520 -0.000000 4.236804
v 2.135412 -0.000000 2.115483
v -3.314608 0.951057 -3.748205
v -4.105177 0.587785 -2.957635
v -4.105177 -0.587785 -2.957635
v -3.314608 -0.951057 -3.748205
v -2.826009 -0.000000 -4.236803
v -2.118902 -0.000000 -2.115483
v -0.292507 5.000000 -0.951057
v 0.825527 5.000000 -0.587785
v 0.825527 5.000000 0.587785
v -0.292507 5.000000 0.951057
v -0.983490 5.000000 0.000000
v 0.016510 3.000000 0.000000
v 0.309017 -5.000000 -0.951057
v -0.809017 -5.000000 -0.587785
v -0.809017 -5.000000 0.587785
v 0.309017 -5.000000 0.951057
v 1.000000 -5.000000 0.000000
v 0.000000 -3.000000 0.000000
vt 0.577254 0.012236
vt 0.750000 0.250000
vt 0.577254 0.487764
vt 0.297746 0.396946
vt 0.297746 0.103054
vt 0.250000 0.500000
vt 0.350000 0.500000
vt 0.500000 1.000000
vt 0.450000 0.500000
vt 0.550000 0.500000
vt 0.650000 0.500000
vt 0.750000 0.500000
vt 0.577254 0.012236
vt 0.750000 0.250000
vt 0.577254 0.487764
vt 0.297746 0.396946
vt 0.297746 0.103054
vt 0.250000 0.500000
vt 0.350000 0.500000
vt 0.500000 1.000000
vt 0.450000 0.500000
vt 0.550000 0.500000
vt 0.650000 0.500000
vt 0.750000 0.500000
vt 0.577254 0.012236
vt 0.750000 0.250000
vt 0.577254 0.487764
vt 0.297746 0.396946
vt 0.297746 0.103054
vt 0.250000 0.500000
vt 0.350000 0.500000
vt 0.500000 1.000000
vt 0.450000 0.500000
vt 0.550000 0.500000
vt 0.650000 0.500000
vt 0.750000 0.500000
vt 0.577254 0.012236
vt 0.750000 0.250000
vt 0.577254 0.487764
vt 0.297746 0.396946
vt 0.297746 0.103054
vt 0.250000 0.500000
vt 0.350000 0.500000
vt 0.500000 1.000000
vt 0.450000 0.500000
vt 0.550000 0.500000
vt 0.650000 0.500000
vt 0.750000 0.500000
vt 0.577254 0.012236
vt 0.750000 0.250000
vt 0.577254 0.487764
vt 0.297746 0.396946
vt 0.297746 0.103054
vt 0.250000 0.500000
vt 0.350000 0.500000
vt 0.500000 1.000000
vt 0.450000 0.500000
vt 0.550000 0.500000
vt 0.650000 0.500000
vt 0.750000 0.500000
vt 0.577254 0.012236
vt 0.750000 0.250000
vt 0.577254 0.487764
vt 0.297746 0.396946
vt 0.297746 0.103054
vt 0.250000 0.500000
vt 0.350000 0.500000
vt 0.500000 1.000000
vt 0.450000 0.500000
vt 0.550000 0.500000
vt 0.650000 0.500000
vt 0.750000 0.500000
vn 0.707107 -0.000000 -0.707107
vn 0.707107 -0.000000 -0.707107
vn 0.707107 -0.000000 -0.707107
vn 0.707107 0.000000 -0.707107
vn 0.707107 0.000000 -0.707107
vn -0.062596 -0.881657 0.467722
vn -0.062596 -0.881657 0.467722
vn -0.062596 -0.881657 0.467722
vn 0.390349 0.000000 0.920667
vn 0.390349 0.000000 0.920667
vn 0.390349 0.000000 0.920667
vn -0.062595 0.881657 0.467722
vn -0.062595 0.881657 0.467722
vn -0.062595 0.881657 0.467722
vn -0.795476 0.544894 -0.265159
vn -0.795476 0.544894 -0.265159
vn -0.795476 0.544894 -0.265159
vn -0.795476 -0.544893 -0.265159
vn -0.795476 -0.544893 -0.265159
vn -0.795476 -0.544893 -0.265159
vn -0.707107 0.000000 0.707107
vn -0.707107 -0.000000 0.707107
vn -0.707107 -0.000000 0.707107
vn -0.707107 -0.000000 0.707107
vn -0.707107 0.000000 0.707107
vn 0.062595 -0.881657 -0.467722
vn 0.062595 -0.881657 -0.467722
vn 0.062595 -0.881657 -0.467722
vn -0.390349 0.000000 -0.920667
vn -0.390349 0.000000 -0.920667
vn -0.390349 0.000000 -0.920667
vn 0.062595 0.881657 -0.467722
vn 0.062595 0.881657 -0.467722
vn 0.062595 0.881657 -0.467722
vn 0.795476 0.544894 0.265159
vn 0.795476 0.544894 0.265159
vn 0.795476 0.544894 0.265159
vn 0.795476 -0.544894 0.265159
vn 0.795476 -0.544893 0.265159
vn 0.795476 -0.544894 0.265159
vn 0.707107 0.000000 0.707107
vn 0.707107 0.000000 0.707107
vn 0.707107 0.000000 0.707107
vn 0.707107 0.000000 0.707107
vn 0.707107 0.000000 0.707107
vn -0.062595 0.881657 -0.467722
vn -0.062595 0.881657 -0.467722
vn -0.062595 0.881657 -0.467722
vn 0.390349 0.000000 -0.920667
vn 0.390349 0.000000 -0.920667
vn 0.390349 0.000000 -0.920667
vn -0.062595 -0.881656 -0.467722
vn -0.062595 -0.881656 -0.467722
vn -0.062595 -0.881656 -0.467722
vn -0.795476 -0.544894 0.265159
vn -0.795476 -0.544894 0.265159
vn -0.795476 -0.544894 0.265159
vn -0.795476 0.544894 0.265159
vn -0.795476 0.544894 0.265159
vn -0.795476 0.544894 0.265159
vn -0.707107 -0.000000 -0.707107
vn -0.707107 -0.000000 -0.707107
vn -0.707107 -0.000000 -0.707107
vn -0.707107 0.000000 -0.707107
vn -0.707107 0.000000 -0.707106
vn 0.062595 0.881657 0.467722
vn 0.062595 0.881657 0.467722
vn 0.062595 0.881657 0.467722
vn -0.390349 0.000000 0.920667
vn -0.390349 0.000000 0.920667
vn -0.390350 0.000000 0.920667
vn 0.062595 -0.881657 0.467722
vn 0.062595 -0.881657 0.467722
vn 0.062595 -0.881657 0.467722
vn 0.795476 -0.544894 -0.265159
vn 0.795476 -0.544894 -0.265159
vn 0.795476 -0.544894 -0.265159
vn 0.795476 0.544894 -0.265159
vn 0.795476 0.544894 -0.265159
vn 0.795476 0.544894 -0.265159
vn 0.000000 1.000000 0.000000
vn 0.000000 1.000000 0.000000
vn 0.000000 1.000000 -0.000000
vn 0.000000 1.000000 -0.000000
vn 0.000000 1.000000 -0.000001
vn 0.286467 -0.374991 -0.881657
vn 0.286467 -0.374991 -0.881657
vn 0.286467 -0.374991 -0.881657
vn 0.927029 -0.374991 0.000000
vn 0.927029 -0.374991 0.000000
vn 0.927029 -0.374991 0.000000
vn 0.286467 -0.374991 0.881657
vn 0.286467 -0.374991 0.881657
vn 0.286467 -0.374991 0.881657
vn -0.749982 -0.374991 0.544894
vn -0.749982 -0.374991 0.544894
vn -0.749982 -0.374991 0.544894
vn -0.749982 -0.374991 -0.544894
vn -0.749982 -0.374991 -0.544894
vn -0.749982 -0.374991 -0.544894
vn 0.000000 -1.000000 0.000000
vn 0.000000 -1.000000 0.000000
vn 0.000000 -1.000000 0.000000
vn 0.000000 -1.000000 0.000000
vn 0.000000 -1.000000 0.000001
vn -0.286467 0.374991 -0.881657
vn -0.286467 0.374991 -0.881657
vn -0.286467 0.374991 -0.881657
vn -0.927029 0.374991 0.000000
vn -0.927029 0.374991 0.000000
vn -0.927028 0.374991 0.000000
vn -0.286468 0.374991 0.881656
vn -0.286468 0.374991 0.881656
vn -0.286468 0.374991 0.881657
vn 0.749982 0.374991 0.544894
vn 0.749982 0.374991 0.544894
vn 0.749982 0.374991 0.544894
vn 0.749982 0.374991 -0.544894
vn 0.749982 0.374991 -0.544894
vn 0.749982 0.374991 -0.544894
usemtl initialShadingGroup
f 1/1/1 5/2/2 2/5/3
f 5/2/2 4/3/4 2/5/3
f 4/3/4 3/4/5 2/5/3
f 1/6/6 2/7/7 6/8/8
f 2/7/9 3/9/10 6/8/11
f 3/9/12 4/10/13 6/8/14
f 4/10/15 5/11/16 6/8/17
f 5/11/18 1/12/19 6/8/20
f 7/13/21 11/14/22 8/17/23
f 11/14/22 10/15/24 8/17/23
f 10/15/24 9/16/25 8/17/23
f 7/18/26 8/19/27 12/20/28
f 8/19/29 9/21/30 12/20/31
f 9/21/32 10/22/33 12/20/34
f 10/22/35 11/23/36 12/20/37
f 11/23/38 7/24/39 12/20/40
f 13/25/41 17/26/42 14/29/43
f 17/26/42 16/27/44 14/29/43
f 16/27/44 15/28/45 14/29/43
f 13/30/46 14/31/47 18/32/48
f 14/31/49 15/33/50 18/32/51
f 15/33/52 16/34/53 18/32/54
f 16/34/55 17/35/56 18/32/57
f 17/35/58 13/36/59 18/32/60
f 19/37/61 23/38/62 20/41/63
f 23/38/62 22/39/64 20/41/63
f 22/39/64 21/40/65 20/41/63
f 19/42/66 20/43/67 24/44/68
f 20/43/69 21/45/70 24/44/71
f 21/45/72 22/46/73 24/44/74
f 22/46/75 23/47/76 24/44/77
f 23/47/78 19/48/79 24/44/80
f 25/49/81 29/50/82 26/53/83
f 29/50/82 28/51/84 26/53/83
f 28/51/84 27/52/85 26/53/83
f 25/54/86 26/55/87 30/56/88
f 26/55/89 27/57/90 30/56/91
f 27/57/92 28/58/93 30/56/94
f 28/58/95 29/59/96 30/56/97
f 29/59/98 25/60/99 30/56/100
f 31/61/101 35/62/102 32/65/103
f 35/62/102 34/63/104 32/65/103
f 34/63/104 33/64/105 32/65/103
f 31/66/106 32/67/107 36/68/108
f 32/67/109 33/69/110 36/68/111
f 33/69/112 34/70/113 36/68/114
f 34/70/115 35/71/116 36/68/117
f 35/71/118 31/72/119 36/68/120
