# This file uses centimeters as units for non-parametric coordinates.

mtllib shark_hire.mtl
g default
v 0.072961 -0.014790 -0.049221
v 0.065415 -0.016169 -0.099244
v 0.053411 -0.016222 -0.143030
v 0.037767 -0.015188 -0.177063
v 0.019550 -0.013963 -0.198611
v 0.000000 -0.013435 -0.205982
v -0.019550 -0.013963 -0.198611
v -0.037767 -0.015188 -0.177063
v -0.053411 -0.016222 -0.143030
v -0.065415 -0.016169 -0.099244
v -0.072961 -0.014790 -0.049221
v -0.075535 -0.012849 0.003192
v -0.072961 -0.011763 0.054274
v -0.065415 -0.012673 0.100733
v -0.053411 -0.015640 0.139812
v -0.037767 -0.019570 0.169326
v -0.019550 -0.022837 0.187684
v -0.000000 -0.024096 0.193912
v 0.019550 -0.022837 0.187684
v 0.037767 -0.019570 0.169326
v 0.053411 -0.015640 0.139812
v 0.065415 -0.012673 0.100733
v 0.072961 -0.011763 0.054274
v 0.075535 -0.012849 0.003192
v 0.060801 0.068186 -0.031844
v 0.054512 0.062509 -0.072769
v 0.044509 0.058458 -0.108475
v 0.031473 0.056157 -0.136217
v 0.016292 0.055157 -0.153799
v 0.000000 0.054903 -0.159819
v -0.016292 0.055157 -0.153799
v -0.031473 0.056157 -0.136217
v -0.044509 0.058458 -0.108475
v -0.054512 0.062509 -0.072769
v -0.060801 0.068186 -0.031844
v -0.062946 0.074586 0.011321
v -0.060801 0.080323 0.053795
v -0.054512 0.084197 0.092851
v -0.044509 0.085811 0.126050
v -0.031473 0.085703 0.151337
v -0.016292 0.084961 0.167154
v -0.000000 0.084581 0.172535
v 0.016292 0.084961 0.167154
v 0.031473 0.085703 0.151337
v 0.044509 0.085811 0.126050
v 0.054513 0.084197 0.092851
v 0.060801 0.080323 0.053795
v 0.062946 0.074586 0.011321
v 0.048641 0.150117 -0.027434
v 0.043610 0.142035 -0.059156
v 0.035607 0.135627 -0.086652
v 0.025178 0.131226 -0.107933
v 0.013033 0.128747 -0.121396
v 0.000000 0.127958 -0.126004
v -0.013033 0.128747 -0.121396
v -0.025178 0.131226 -0.107933
v -0.035607 0.135627 -0.086652
v -0.043610 0.142035 -0.059156
v -0.048641 0.150117 -0.027434
v -0.050356 0.159022 0.006335
v -0.048641 0.167575 0.039931
v -0.043610 0.174687 0.071185
v -0.035607 0.179756 0.098049
v -0.025178 0.182800 0.118706
v -0.013033 0.184278 0.131716
v -0.000000 0.184698 0.136158
v 0.013033 0.184278 0.131716
v 0.025178 0.182800 0.118706
v 0.035607 0.179756 0.098049
v 0.043610 0.174687 0.071185
v 0.048641 0.167575 0.039931
v 0.050356 0.159022 0.006335
v 0.036480 0.228741 -0.035717
v 0.032707 0.220352 -0.058625
v 0.026706 0.213455 -0.078327
v 0.018884 0.208443 -0.093486
v 0.009775 0.205445 -0.103039
v 0.000000 0.204452 -0.106303
v -0.009775 0.205445 -0.103039
v -0.018884 0.208443 -0.093486
v -0.026706 0.213455 -0.078327
v -0.032707 0.220352 -0.058625
v -0.036480 0.228741 -0.035717
v -0.037767 0.237930 -0.011111
v -0.036480 0.247036 0.013596
v -0.032708 0.255188 0.036779
v -0.026706 0.261745 0.056856
v -0.018884 0.266398 0.072390
v -0.009775 0.269122 0.082218
v -0.000000 0.270012 0.085582
v 0.009775 0.269122 0.082218
v 0.018884 0.266398 0.072390
v 0.026706 0.261745 0.056856
v 0.032708 0.255188 0.036779
v 0.036480 0.247036 0.013596
v 0.037767 0.237930 -0.011111
v 0.024320 0.303487 -0.053843
v 0.021805 0.296675 -0.068603
v 0.017804 0.290968 -0.081218
v 0.012589 0.286707 -0.090872
v 0.006517 0.284090 -0.096932
v 0.000000 0.283209 -0.098998
v -0.006517 0.284090 -0.096932
v -0.012589 0.286707 -0.090872
v -0.017804 0.290968 -0.081218
v -0.021805 0.296675 -0.068603
v -0.024320 0.303487 -0.053843
v -0.025178 0.310920 -0.037895
v -0.024320 0.318391 -0.021803
v -0.021805 0.325306 -0.006652
v -0.017804 0.331148 0.006499
v -0.012589 0.335537 0.016688
v -0.006517 0.338243 0.023139
v -0.000000 0.339156 0.025348
v 0.006517 0.338243 0.023139
v 0.012589 0.335537 0.016688
v 0.017804 0.331148 0.006499
v 0.021805 0.325306 -0.006652
v 0.024320 0.318391 -0.021803
v 0.025178 0.310920 -0.037895
v 0.012160 0.375893 -0.077204
v 0.010902 0.372075 -0.084441
v 0.008902 0.368834 -0.090619
v 0.006295 0.366373 -0.095338
v 0.003258 0.364839 -0.098296
v 0.000000 0.364296 -0.099331
v -0.003258 0.364839 -0.098296
v -0.006295 0.366373 -0.095338
v -0.008902 0.368834 -0.090619
v -0.010902 0.372075 -0.084441
v -0.012160 0.375893 -0.077204
v -0.012589 0.380046 -0.069351
v -0.012160 0.384199 -0.061498
v -0.010903 0.388100 -0.054091
v -0.008902 0.391456 -0.047682
v -0.006295 0.394030 -0.042732
v -0.003258 0.395646 -0.039606
v -0.000000 0.396189 -0.038571
v 0.003258 0.395646 -0.039606
v 0.006295 0.394030 -0.042732
v 0.008902 0.391456 -0.047682
v 0.010903 0.388100 -0.054091
v 0.012160 0.384199 -0.061498
v 0.012589 0.380046 -0.069351
v 0.000000 0.458298 -0.120579
vt 0.741481 0.185295
vt 0.716506 0.125000
vt 0.676777 0.073223
vt 0.625000 0.033494
vt 0.564705 0.008519
vt 0.500000 0.000000
vt 0.435295 0.008519
vt 0.375000 0.033494
vt 0.323223 0.073223
vt 0.283494 0.125000
vt 0.258519 0.185295
vt 0.250000 0.250000
vt 0.258519 0.314705
vt 0.283494 0.375000
vt 0.323223 0.426777
vt 0.375000 0.466506
vt 0.435295 0.491481
vt 0.500000 0.500000
vt 0.564705 0.491481
vt 0.625000 0.466506
vt 0.676777 0.426777
vt 0.716506 0.375000
vt 0.741481 0.314705
vt 0.750000 0.250000
vt 0.250000 0.500000
vt 0.270833 0.500000
vt 0.291667 0.500000
vt 0.312500 0.500000
vt 0.333333 0.500000
vt 0.354167 0.500000
vt 0.375000 0.500000
vt 0.395833 0.500000
vt 0.416667 0.500000
vt 0.437500 0.500000
vt 0.458333 0.500000
vt 0.479167 0.500000
vt 0.500000 0.500000
vt 0.520833 0.500000
vt 0.541667 0.500000
vt 0.562500 0.500000
vt 0.583333 0.500000
vt 0.604167 0.500000
vt 0.625000 0.500000
vt 0.645833 0.500000
vt 0.666667 0.500000
vt 0.687500 0.500000
vt 0.708333 0.500000
vt 0.729167 0.500000
vt 0.750000 0.500000
vt 0.291667 0.583333
vt 0.309028 0.583333
vt 0.326389 0.583333
vt 0.343750 0.583333
vt 0.361111 0.583333
vt 0.378472 0.583333
vt 0.395833 0.583333
vt 0.413194 0.583333
vt 0.430555 0.583333
vt 0.447917 0.583333
vt 0.465278 0.583333
vt 0.482639 0.583333
vt 0.500000 0.583333
vt 0.517361 0.583333
vt 0.534722 0.583333
vt 0.552083 0.583333
vt 0.569444 0.583333
vt 0.586805 0.583333
vt 0.604167 0.583333
vt 0.621528 0.583333
vt 0.638889 0.583333
vt 0.656250 0.583333
vt 0.673611 0.583333
vt 0.690972 0.583333
vt 0.708333 0.583333
vt 0.333333 0.666667
vt 0.347222 0.666667
vt 0.361111 0.666667
vt 0.375000 0.666667
vt 0.388889 0.666667
vt 0.402778 0.666667
vt 0.416667 0.666667
vt 0.430556 0.666667
vt 0.444444 0.666667
vt 0.458333 0.666667
vt 0.472222 0.666667
vt 0.486111 0.666667
vt 0.500000 0.666667
vt 0.513889 0.666667
vt 0.527778 0.666667
vt 0.541667 0.666667
vt 0.555556 0.666667
vt 0.569445 0.666667
vt 0.583333 0.666667
vt 0.597222 0.666667
vt 0.611111 0.666667
vt 0.625000 0.666667
vt 0.638889 0.666667
vt 0.652778 0.666667
vt 0.666667 0.666667
vt 0.375000 0.750000
vt 0.385417 0.750000
vt 0.395833 0.750000
vt 0.406250 0.750000
vt 0.416667 0.750000
vt 0.427083 0.750000
vt 0.437500 0.750000
vt 0.447917 0.750000
vt 0.458333 0.750000
vt 0.468750 0.750000
vt 0.479167 0.750000
vt 0.489583 0.750000
vt 0.500000 0.750000
vt 0.510417 0.750000
vt 0.520833 0.750000
vt 0.531250 0.750000
vt 0.541667 0.750000
vt 0.552083 0.750000
vt 0.562500 0.750000
vt 0.572917 0.750000
vt 0.583333 0.750000
vt 0.593750 0.750000
vt 0.604167 0.750000
vt 0.614583 0.750000
vt 0.625000 0.750000
vt 0.416667 0.833333
vt 0.423611 0.833333
vt 0.430556 0.833333
vt 0.437500 0.833333
vt 0.444444 0.833333
vt 0.451389 0.833333
vt 0.458333 0.833333
vt 0.465278 0.833333
vt 0.472222 0.833333
vt 0.479167 0.833333
vt 0.486111 0.833333
vt 0.493056 0.833333
vt 0.500000 0.833333
vt 0.506944 0.833333
vt 0.513889 0.833333
vt 0.520833 0.833333
vt 0.527778 0.833333
vt 0.534722 0.833333
vt 0.541667 0.833333
vt 0.548611 0.833333
vt 0.555555 0.833333
vt 0.562500 0.833333
vt 0.569444 0.833333
vt 0.576389 0.833333
vt 0.583333 0.833333
vt 0.458333 0.916667
vt 0.461805 0.916667
vt 0.465278 0.916667
vt 0.468750 0.916667
vt 0.472222 0.916667
vt 0.475694 0.916667
vt 0.479167 0.916667
vt 0.482639 0.916667
vt 0.486111 0.916667
vt 0.489583 0.916667
vt 0.493055 0.916667
vt 0.496528 0.916667
vt 0.500000 0.916667
vt 0.503472 0.916667
vt 0.506944 0.916667
vt 0.510416 0.916667
vt 0.513889 0.916667
vt 0.517361 0.916667
vt 0.520833 0.916667
vt 0.524305 0.916667
vt 0.527777 0.916667
vt 0.531250 0.916667
vt 0.534722 0.916667
vt 0.538194 0.916667
vt 0.541666 0.916667
vt 0.500000 1.000000
vn 0.978538 0.169259 -0.117534
vn 0.951746 0.209138 -0.224590
vn 0.957637 0.187678 -0.218422
vn 0.980642 0.159206 -0.113995
vn 0.896411 0.270827 -0.350855
vn 0.909930 0.235065 -0.341719
vn 0.774656 0.364723 -0.516609
vn 0.804701 0.311718 -0.505260
vn 0.495739 0.487479 -0.718754
vn 0.546330 0.425513 -0.721431
vn 0.000001 0.557087 -0.830454
vn 0.000001 0.505149 -0.863032
vn -0.495738 0.487479 -0.718754
vn -0.546329 0.425514 -0.721431
vn -0.774656 0.364724 -0.516609
vn -0.804701 0.311718 -0.505261
vn -0.896411 0.270827 -0.350855
vn -0.909930 0.235065 -0.341719
vn -0.951746 0.209138 -0.224590
vn -0.957637 0.187678 -0.218422
vn -0.978538 0.169259 -0.117534
vn -0.980642 0.159206 -0.113995
vn -0.989412 0.144428 -0.014289
vn -0.989477 0.143993 -0.014160
vn -0.986716 0.130898 0.096216
vn -0.986043 0.139150 0.091411
vn -0.966210 0.126760 0.224431
vn -0.966463 0.143600 0.212905
vn -0.913778 0.132007 0.384167
vn -0.917797 0.158296 0.364130
vn -0.791233 0.148766 0.593143
vn -0.804098 0.186526 0.564477
vn -0.509678 0.176728 0.842019
vn -0.532404 0.228571 0.815047
vn 0.000000 0.194537 0.980895
vn -0.000000 0.255417 0.966831
vn 0.509678 0.176728 0.842019
vn 0.532403 0.228571 0.815047
vn 0.791233 0.148766 0.593143
vn 0.804098 0.186526 0.564477
vn 0.913778 0.132007 0.384167
vn 0.917797 0.158296 0.364131
vn 0.966210 0.126760 0.224431
vn 0.966463 0.143600 0.212905
vn 0.986716 0.130898 0.096216
vn 0.986043 0.139150 0.091411
vn 0.989412 0.144428 -0.014289
vn 0.989477 0.143993 -0.014160
vn 0.958773 0.154780 -0.238320
vn 0.980750 0.145166 -0.130603
vn 0.911888 0.179221 -0.369242
vn 0.807036 0.225619 -0.545701
vn 0.548260 0.300058 -0.780626
vn 0.000001 0.354038 -0.935231
vn -0.548259 0.300058 -0.780626
vn -0.807035 0.225619 -0.545701
vn -0.911888 0.179221 -0.369242
vn -0.958773 0.154780 -0.238320
vn -0.980750 0.145166 -0.130603
vn -0.988678 0.146771 -0.031216
vn -0.984851 0.158335 0.070704
vn -0.965830 0.180658 0.185836
vn -0.919206 0.217332 0.328371
vn -0.809487 0.275445 0.518517
vn -0.541196 0.356854 0.761421
vn 0.000000 0.408771 0.912637
vn 0.541196 0.356854 0.761421
vn 0.809487 0.275445 0.518518
vn 0.919206 0.217332 0.328371
vn 0.965830 0.180658 0.185836
vn 0.984851 0.158335 0.070704
vn 0.988678 0.146771 -0.031217
vn 0.959768 0.121613 -0.253093
vn 0.980754 0.130820 -0.144937
vn 0.913481 0.121998 -0.388162
vn 0.808363 0.135367 -0.572909
vn 0.548335 0.165410 -0.819737
vn 0.000000 0.189643 -0.981853
vn -0.548334 0.165410 -0.819738
vn -0.808363 0.135367 -0.572910
vn -0.913481 0.121998 -0.388162
vn -0.959768 0.121613 -0.253093
vn -0.980755 0.130820 -0.144936
vn -0.987722 0.148493 -0.048537
vn -0.983378 0.175359 0.047084
vn -0.964779 0.214360 0.152481
vn -0.920236 0.272004 0.281388
vn -0.815189 0.359865 0.453833
vn -0.551863 0.483596 0.679398
vn 0.000000 0.565085 0.825033
vn 0.551862 0.483597 0.679398
vn 0.815189 0.359865 0.453833
vn 0.920236 0.272004 0.281388
vn 0.964779 0.214360 0.152481
vn 0.983378 0.175359 0.047084
vn 0.987722 0.148493 -0.048537
vn 0.960189 0.095335 -0.262578
vn 0.980603 0.118727 -0.155953
vn 0.914036 0.077048 -0.398249
vn 0.808139 0.064162 -0.585487
vn 0.546961 0.058402 -0.835118
vn -0.000000 0.058593 -0.998282
vn -0.546960 0.058402 -0.835119
vn -0.808138 0.064162 -0.585488
vn -0.914036 0.077048 -0.398249
vn -0.960189 0.095335 -0.262579
vn -0.980603 0.118727 -0.155953
vn -0.986925 0.148165 -0.063459
vn -0.982205 0.186051 0.025649
vn -0.963926 0.236974 0.121202
vn -0.921094 0.309726 0.235912
vn -0.820292 0.419710 0.388542
vn -0.561934 0.578009 0.591723
vn -0.000000 0.686465 0.727163
vn 0.561933 0.578009 0.591723
vn 0.820292 0.419710 0.388542
vn 0.921094 0.309726 0.235912
vn 0.963926 0.236974 0.121202
vn 0.982205 0.186052 0.025649
vn 0.986924 0.148165 -0.063460
vn 0.963903 0.065309 -0.258118
vn 0.982673 0.100517 -0.155727
vn 0.920296 0.031202 -0.389976
vn 0.818370 -0.004246 -0.574675
vn 0.561288 -0.040753 -0.826617
vn -0.000001 -0.060693 -0.998157
vn -0.561287 -0.040753 -0.826617
vn -0.818369 -0.004246 -0.574677
vn -0.920296 0.031202 -0.389976
vn -0.963904 0.065309 -0.258118
vn -0.982673 0.100518 -0.155727
vn -0.987865 0.139468 -0.068354
vn -0.982466 0.185876 0.014499
vn -0.964098 0.245302 0.101699
vn -0.922183 0.327976 0.204965
vn -0.824275 0.451606 0.341499
vn -0.569088 0.632215 0.525778
vn -0.000000 0.759134 0.650935
vn 0.569088 0.632215 0.525778
vn 0.824275 0.451606 0.341499
vn 0.922183 0.327976 0.204964
vn 0.964098 0.245302 0.101699
vn 0.982466 0.185877 0.014498
vn 0.987865 0.139468 -0.068354
vn -0.000000 -0.999924 -0.012296
vn -0.000000 -0.999924 -0.012296
vn -0.000000 -0.999924 -0.012296
vn -0.000000 -0.999924 -0.012296
vn -0.000000 -0.999924 -0.012296
vn -0.000000 -0.999924 -0.012296
vn -0.000000 -0.999924 -0.012296
vn -0.000000 -0.999924 -0.012296
vn -0.000000 -0.999924 -0.012296
vn -0.000000 -0.999924 -0.012296
vn -0.000000 -0.999924 -0.012296
vn -0.000000 -0.999924 -0.012296
vn -0.000000 -0.999924 -0.012296
vn -0.000000 -0.999924 -0.012296
vn -0.000000 -0.999924 -0.012296
vn -0.000000 -0.999924 -0.012296
vn -0.000000 -0.999924 -0.012296
vn -0.000000 -0.999924 -0.012296
vn -0.000000 -0.999924 -0.012296
vn -0.000000 -0.999924 -0.012296
vn -0.000000 -0.999924 -0.012296
vn -0.000000 -0.999924 -0.012296
vn -0.000000 -0.999924 -0.012296
vn -0.000000 -0.999924 -0.012296
vn 0.000012 0.826933 -0.562300
s 1
g pCone1
usemtl lambert2SG
f 1/25/1 2/26/2 26/51/3 25/50/4
f 2/26/2 3/27/5 27/52/6 26/51/3
f 3/27/5 4/28/7 28/53/8 27/52/6
f 4/28/7 5/29/9 29/54/10 28/53/8
f 5/29/9 6/30/11 30/55/12 29/54/10
f 6/30/11 7/31/13 31/56/14 30/55/12
f 7/31/13 8/32/15 32/57/16 31/56/14
f 8/32/15 9/33/17 33/58/18 32/57/16
f 9/33/17 10/34/19 34/59/20 33/58/18
f 10/34/19 11/35/21 35/60/22 34/59/20
f 11/35/21 12/36/23 36/61/24 35/60/22
f 12/36/23 13/37/25 37/62/26 36/61/24
f 13/37/25 14/38/27 38/63/28 37/62/26
f 14/38/27 15/39/29 39/64/30 38/63/28
f 15/39/29 16/40/31 40/65/32 39/64/30
f 16/40/31 17/41/33 41/66/34 40/65/32
f 17/41/33 18/42/35 42/67/36 41/66/34
f 18/42/35 19/43/37 43/68/38 42/67/36
f 19/43/37 20/44/39 44/69/40 43/68/38
f 20/44/39 21/45/41 45/70/42 44/69/40
f 21/45/41 22/46/43 46/71/44 45/70/42
f 22/46/43 23/47/45 47/72/46 46/71/44
f 23/47/45 24/48/47 48/73/48 47/72/46
f 24/48/47 1/49/1 25/74/4 48/73/48
f 25/50/4 26/51/3 50/76/49 49/75/50
f 26/51/3 27/52/6 51/77/51 50/76/49
f 27/52/6 28/53/8 52/78/52 51/77/51
f 28/53/8 29/54/10 53/79/53 52/78/52
f 29/54/10 30/55/12 54/80/54 53/79/53
f 30/55/12 31/56/14 55/81/55 54/80/54
f 31/56/14 32/57/16 56/82/56 55/81/55
f 32/57/16 33/58/18 57/83/57 56/82/56
f 33/58/18 34/59/20 58/84/58 57/83/57
f 34/59/20 35/60/22 59/85/59 58/84/58
f 35/60/22 36/61/24 60/86/60 59/85/59
f 36/61/24 37/62/26 61/87/61 60/86/60
f 37/62/26 38/63/28 62/88/62 61/87/61
f 38/63/28 39/64/30 63/89/63 62/88/62
f 39/64/30 40/65/32 64/90/64 63/89/63
f 40/65/32 41/66/34 65/91/65 64/90/64
f 41/66/34 42/67/36 66/92/66 65/91/65
f 42/67/36 43/68/38 67/93/67 66/92/66
f 43/68/38 44/69/40 68/94/68 67/93/67
f 44/69/40 45/70/42 69/95/69 68/94/68
f 45/70/42 46/71/44 70/96/70 69/95/69
f 46/71/44 47/72/46 71/97/71 70/96/70
f 47/72/46 48/73/48 72/98/72 71/97/71
f 48/73/48 25/74/4 49/99/50 72/98/72
f 49/75/50 50/76/49 74/101/73 73/100/74
f 50/76/49 51/77/51 75/102/75 74/101/73
f 51/77/51 52/78/52 76/103/76 75/102/75
f 52/78/52 53/79/53 77/104/77 76/103/76
f 53/79/53 54/80/54 78/105/78 77/104/77
f 54/80/54 55/81/55 79/106/79 78/105/78
f 55/81/55 56/82/56 80/107/80 79/106/79
f 56/82/56 57/83/57 81/108/81 80/107/80
f 57/83/57 58/84/58 82/109/82 81/108/81
f 58/84/58 59/85/59 83/110/83 82/109/82
f 59/85/59 60/86/60 84/111/84 83/110/83
f 60/86/60 61/87/61 85/112/85 84/111/84
f 61/87/61 62/88/62 86/113/86 85/112/85
f 62/88/62 63/89/63 87/114/87 86/113/86
f 63/89/63 64/90/64 88/115/88 87/114/87
f 64/90/64 65/91/65 89/116/89 88/115/88
f 65/91/65 66/92/66 90/117/90 89/116/89
f 66/92/66 67/93/67 91/118/91 90/117/90
f 67/93/67 68/94/68 92/119/92 91/118/91
f 68/94/68 69/95/69 93/120/93 92/119/92
f 69/95/69 70/96/70 94/121/94 93/120/93
f 70/96/70 71/97/71 95/122/95 94/121/94
f 71/97/71 72/98/72 96/123/96 95/122/95
f 72/98/72 49/99/50 73/124/74 96/123/96
f 73/100/74 74/101/73 98/126/97 97/125/98
f 74/101/73 75/102/75 99/127/99 98/126/97
f 75/102/75 76/103/76 100/128/100 99/127/99
f 76/103/76 77/104/77 101/129/101 100/128/100
f 77/104/77 78/105/78 102/130/102 101/129/101
f 78/105/78 79/106/79 103/131/103 102/130/102
f 79/106/79 80/107/80 104/132/104 103/131/103
f 80/107/80 81/108/81 105/133/105 104/132/104
f 81/108/81 82/109/82 106/134/106 105/133/105
f 82/109/82 83/110/83 107/135/107 106/134/106
f 83/110/83 84/111/84 108/136/108 107/135/107
f 84/111/84 85/112/85 109/137/109 108/136/108
f 85/112/85 86/113/86 110/138/110 109/137/109
f 86/113/86 87/114/87 111/139/111 110/138/110
f 87/114/87 88/115/88 112/140/112 111/139/111
f 88/115/88 89/116/89 113/141/113 112/140/112
f 89/116/89 90/117/90 114/142/114 113/141/113
f 90/117/90 91/118/91 115/143/115 114/142/114
f 91/118/91 92/119/92 116/144/116 115/143/115
f 92/119/92 93/120/93 117/145/117 116/144/116
f 93/120/93 94/121/94 118/146/118 117/145/117
f 94/121/94 95/122/95 119/147/119 118/146/118
f 95/122/95 96/123/96 120/148/120 119/147/119
f 96/123/96 73/124/74 97/149/98 120/148/120
f 97/125/98 98/126/97 122/151/121 121/150/122
f 98/126/97 99/127/99 123/152/123 122/151/121
f 99/127/99 100/128/100 124/153/124 123/152/123
f 100/128/100 101/129/101 125/154/125 124/153/124
f 101/129/101 102/130/102 126/155/126 125/154/125
f 102/130/102 103/131/103 127/156/127 126/155/126
f 103/131/103 104/132/104 128/157/128 127/156/127
f 104/132/104 105/133/105 129/158/129 128/157/128
f 105/133/105 106/134/106 130/159/130 129/158/129
f 106/134/106 107/135/107 131/160/131 130/159/130
f 107/135/107 108/136/108 132/161/132 131/160/131
f 108/136/108 109/137/109 133/162/133 132/161/132
f 109/137/109 110/138/110 134/163/134 133/162/133
f 110/138/110 111/139/111 135/164/135 134/163/134
f 111/139/111 112/140/112 136/165/136 135/164/135
f 112/140/112 113/141/113 137/166/137 136/165/136
f 113/141/113 114/142/114 138/167/138 137/166/137
f 114/142/114 115/143/115 139/168/139 138/167/138
f 115/143/115 116/144/116 140/169/140 139/168/139
f 116/144/116 117/145/117 141/170/141 140/169/140
f 117/145/117 118/146/118 142/171/142 141/170/141
f 118/146/118 119/147/119 143/172/143 142/171/142
f 119/147/119 120/148/120 144/173/144 143/172/143
f 120/148/120 97/149/98 121/174/122 144/173/144
s off
f 1/1/145 24/24/146 23/23/147 22/22/148 21/21/149 20/20/150 19/19/151 18/18/152 17/17/153 16/16/154 15/15/155 14/14/156 13/13/157 12/12/158 11/11/159 10/10/160 9/9/161 8/8/162 7/7/163 6/6/164 5/5/165 4/4/166 3/3/167 2/2/168
s 1
f 121/150/122 122/151/121 145/175/169
f 122/151/121 123/152/123 145/175/169
f 123/152/123 124/153/124 145/175/169
f 124/153/124 125/154/125 145/175/169
f 125/154/125 126/155/126 145/175/169
f 126/155/126 127/156/127 145/175/169
f 127/156/127 128/157/128 145/175/169
f 128/157/128 129/158/129 145/175/169
f 129/158/129 130/159/130 145/175/169
f 130/159/130 131/160/131 145/175/169
f 131/160/131 132/161/132 145/175/169
f 132/161/132 133/162/133 145/175/169
f 133/162/133 134/163/134 145/175/169
f 134/163/134 135/164/135 145/175/169
f 135/164/135 136/165/136 145/175/169
f 136/165/136 137/166/137 145/175/169
f 137/166/137 138/167/138 145/175/169
f 138/167/138 139/168/139 145/175/169
f 139/168/139 140/169/140 145/175/169
f 140/169/140 141/170/141 145/175/169
f 141/170/141 142/171/142 145/175/169
f 142/171/142 143/172/143 145/175/169
f 143/172/143 144/173/144 145/175/169
f 144/173/144 121/174/122 145/175/169
