# This file uses centimeters as units for non-parametric coordinates.

mtllib shark_esa.mtl
g default
v 0.176362 -0.334628 0.039510
v 0.057729 -0.311772 0.210014
v 0.245111 -0.207860 0.198406
v 0.073845 -0.126965 0.068399
vt 0.375000 0.033494
vt 0.375000 0.466506
vt 0.750000 0.250000
vt 0.250000 0.500000
vt 0.416667 0.500000
vt 0.583333 0.500000
vt 0.750000 0.500000
vt 0.500000 1.000000
vn 0.459146 -0.780592 0.424100
vn 0.459146 -0.780592 0.424100
vn 0.459146 -0.780592 0.424100
vn -0.796779 -0.322232 -0.511184
vn -0.796779 -0.322232 -0.511184
vn -0.796779 -0.322232 -0.511184
vn -0.285516 0.598486 0.748529
vn -0.285516 0.598486 0.748529
vn -0.285516 0.598486 0.748529
vn 0.666298 0.415107 -0.619462
vn 0.666298 0.415107 -0.619462
vn 0.666298 0.415107 -0.619462
s off
g pCone1 group1
usemtl blinn1SG
f 1/1/1 3/3/2 2/2/3
f 1/4/4 2/5/5 4/8/6
f 2/5/7 3/6/8 4/8/9
f 3/6/10 1/7/11 4/8/12
g default
v 0.052241 -0.100890 -0.037068
v -0.028302 -0.085372 0.078693
v 0.095924 -0.017519 0.069090
v -0.027668 0.034964 -0.110878
v -0.108211 0.050482 0.004882
v 0.016015 0.118335 -0.004720
v 0.100489 -0.170841 0.092819
v -0.091155 0.154972 -0.084197
vt 0.421875 0.020934
vt 0.421875 0.291566
vt 0.656250 0.156250
vt 0.375000 0.312500
vt 0.458333 0.312500
vt 0.541667 0.312500
vt 0.625000 0.312500
vt 0.375000 0.688440
vt 0.458333 0.688440
vt 0.541667 0.688440
vt 0.625000 0.688440
vt 0.421875 0.708434
vt 0.421875 0.979066
vt 0.656250 0.843750
vt 0.500000 0.150000
vt 0.500000 0.837500
vn -0.683297 -0.615396 -0.392927
vn -0.683297 -0.615396 -0.392927
vn -0.683297 -0.615396 -0.392927
vn -0.683297 -0.615396 -0.392927
vn -0.149999 0.402420 0.903083
vn -0.149999 0.402420 0.903083
vn -0.149999 0.402420 0.903083
vn -0.149999 0.402420 0.903083
vn 0.833296 0.212976 -0.510155
vn 0.833296 0.212976 -0.510155
vn 0.833296 0.212976 -0.510155
vn 0.833296 0.212976 -0.510155
vn -0.465507 -0.592846 0.657143
vn 0.369716 -0.753763 -0.543279
vn 0.459146 -0.780592 0.424100
vn 0.822706 0.110783 0.557568
vn -0.150925 0.137786 -0.978895
vn -0.943399 0.290467 0.160085
vn -0.459146 0.780592 -0.424100
vn 0.278880 0.958082 0.065607
s off
g group1 pCylinder1
usemtl blinn1SG
f 5/12/13 6/13/14 9/17/15 8/16/16
f 6/13/17 7/14/18 10/18/19 9/17/20
f 7/14/21 5/15/22 8/19/23 10/18/24
s 1
f 6/10/25 5/9/26 11/23/27
f 7/11/28 6/10/25 11/23/27
f 5/9/26 7/11/28 11/23/27
s 2
f 8/21/29 9/20/30 12/24/31
f 9/20/30 10/22/32 12/24/31
f 10/22/32 8/21/29 12/24/31
g default
v 0.328513 0.230255 0.323075
v 0.134233 0.165853 0.280938
v 0.168209 0.372866 0.326053
v 0.237336 0.299373 0.119660
vt 0.375000 0.033494
vt 0.375000 0.466506
vt 0.750000 0.250000
vt 0.250000 0.500000
vt 0.416667 0.500000
vt 0.583333 0.500000
vt 0.750000 0.500000
vt 0.500000 1.000000
vn -0.148536 -0.187243 0.971019
vn -0.148536 -0.187243 0.971019
vn -0.148536 -0.187243 0.971019
vn 0.367186 -0.818111 -0.442571
vn 0.367186 -0.818111 -0.442571
vn 0.367186 -0.818111 -0.442571
vn -0.895160 0.230113 -0.381756
vn -0.895160 0.230113 -0.381756
vn -0.895160 0.230113 -0.381756
vn 0.663586 0.746823 -0.043677
vn 0.663586 0.746823 -0.043677
vn 0.663586 0.746823 -0.043677
s off
g pasted__pCone1 pasted__group1 group
usemtl blinn1SG
f 13/25/33 15/27/34 14/26/35
f 13/28/36 14/29/37 16/32/38
f 14/29/39 15/30/40 16/32/41
f 15/30/42 13/31/43 16/32/44
g default
v 0.327960 0.297825 0.055984
v 0.196058 0.254101 0.027375
v 0.220601 0.390563 0.057444
v 0.353812 0.330413 -0.113011
v 0.221910 0.286688 -0.141620
v 0.246453 0.423150 -0.111551
v 0.228624 0.289476 0.174955
v 0.290621 0.367630 -0.230341
vt 0.421875 0.020934
vt 0.421875 0.291566
vt 0.656250 0.156250
vt 0.375000 0.312500
vt 0.458333 0.312500
vt 0.541667 0.312500
vt 0.625000 0.312500
vt 0.375000 0.688440
vt 0.458333 0.688440
vt 0.541667 0.688440
vt 0.625000 0.688440
vt 0.421875 0.708434
vt 0.421875 0.979066
vt 0.656250 0.843750
vt 0.500000 0.150000
vt 0.500000 0.837500
vn 0.337015 -0.932716 -0.128304
vn 0.337015 -0.932716 -0.128304
vn 0.337015 -0.932716 -0.128304
vn 0.337015 -0.932716 -0.128304
vn -0.973659 0.199457 -0.110478
vn -0.973659 0.199457 -0.110478
vn -0.973659 0.199457 -0.110478
vn -0.973659 0.199457 -0.110478
vn 0.636643 0.733259 0.238782
vn 0.636643 0.733259 0.238782
vn 0.636643 0.733259 0.238782
vn 0.636643 0.733259 0.238782
vn -0.619160 -0.721653 0.309611
vn 0.748651 -0.268235 0.606277
vn -0.148536 -0.187243 0.971019
vn -0.364652 0.693447 0.621418
vn 0.872641 -0.049902 -0.485806
vn -0.425161 -0.480112 -0.767288
vn 0.148536 0.187243 -0.971019
vn -0.183679 0.862558 -0.471440
s off
g pasted__group1 group pasted__pCylinder1
usemtl blinn1SG
f 17/36/45 18/37/46 21/41/47 20/40/48
f 18/37/49 19/38/50 22/42/51 21/41/52
f 19/38/53 17/39/54 20/43/55 22/42/56
s 1
f 18/34/57 17/33/58 23/47/59
f 19/35/60 18/34/57 23/47/59
f 17/33/58 19/35/60 23/47/59
s 2
f 20/45/61 21/44/62 24/48/63
f 21/44/62 22/46/64 24/48/63
f 22/46/64 20/45/61 24/48/63
g default
v -0.061712 0.437972 -0.228415
v 0.025690 0.304563 -0.093394
v 0.051236 0.515473 -0.063246
v -0.155883 0.428525 -0.015082
vt 0.375000 0.033494
vt 0.375000 0.466506
vt 0.750000 0.250000
vt 0.250000 0.500000
vt 0.416667 0.500000
vt 0.583333 0.500000
vt 0.750000 0.500000
vt 0.500000 1.000000
vn 0.829792 -0.020786 -0.557686
vn 0.829792 -0.020786 -0.557686
vn 0.829792 -0.020786 -0.557686
vn -0.623370 -0.719130 -0.307020
vn -0.623370 -0.719130 -0.307020
vn -0.623370 -0.719130 -0.307020
vn 0.290271 -0.169777 0.941764
vn 0.290271 -0.169777 0.941764
vn 0.290271 -0.169777 0.941764
vn -0.410981 0.900590 -0.141536
vn -0.410981 0.900590 -0.141536
vn -0.410981 0.900590 -0.141536
s off
g pasted__pCone1 pasted__group1 group2
usemtl blinn1SG
f 25/49/65 27/51/66 26/50/67
f 25/52/68 26/53/69 28/56/70
f 26/53/71 27/54/72 28/56/73
f 27/54/74 25/55/75 28/56/76
g default
v -0.262626 0.444475 -0.040013
v -0.203285 0.353900 0.051657
v -0.187560 0.493723 0.069843
v -0.407042 0.448093 0.057047
v -0.347702 0.357517 0.148716
v -0.331977 0.497340 0.166902
v -0.108423 0.427959 -0.046364
v -0.454772 0.436635 0.186410
vt 0.421875 0.020934
vt 0.421875 0.291566
vt 0.656250 0.156250
vt 0.375000 0.312500
vt 0.458333 0.312500
vt 0.541667 0.312500
vt 0.625000 0.312500
vt 0.375000 0.688440
vt 0.458333 0.688440
vt 0.541667 0.688440
vt 0.625000 0.688440
vt 0.421875 0.708434
vt 0.421875 0.979066
vt 0.656250 0.843750
vt 0.500000 0.150000
vt 0.500000 0.837500
vn -0.369466 -0.769410 -0.521059
vn -0.369466 -0.769410 -0.521059
vn -0.369466 -0.769410 -0.521059
vn -0.369466 -0.769410 -0.521059
vn 0.546956 -0.168180 0.820094
vn 0.546956 -0.168180 0.820094
vn 0.546956 -0.168180 0.820094
vn 0.546956 -0.168180 0.820094
vn -0.177490 0.937590 -0.299035
vn -0.177490 0.937590 -0.299035
vn -0.177490 0.937590 -0.299035
vn -0.177490 0.937590 -0.299035
vn 0.588668 -0.807370 -0.040303
vn -0.026685 0.131885 -0.990906
vn 0.829792 -0.020786 -0.557686
vn 0.751735 0.642577 0.148286
vn -0.932050 0.147847 -0.330793
vn -0.348193 -0.743333 0.571155
vn -0.829792 0.020786 0.557686
vn -0.193472 0.632401 0.750092
s off
g pasted__group1 group2 pasted__pCylinder1
usemtl blinn1SG
f 29/60/77 30/61/78 33/65/79 32/64/80
f 30/61/81 31/62/82 34/66/83 33/65/84
f 31/62/85 29/63/86 32/67/87 34/66/88
s 1
f 30/58/89 29/57/90 35/71/91
f 31/59/92 30/58/89 35/71/91
f 29/57/90 31/59/92 35/71/91
s 2
f 32/69/93 33/68/94 36/72/95
f 33/68/94 34/70/96 36/72/95
f 34/70/96 32/69/93 36/72/95
g default
v 0.352333 -0.478671 0.392306
v 0.291259 -0.460812 0.591350
v 0.389259 -0.294952 0.496845
v 0.172195 -0.336248 0.433947
vt 0.375000 0.033494
vt 0.375000 0.466506
vt 0.750000 0.250000
vt 0.250000 0.500000
vt 0.416667 0.500000
vt 0.583333 0.500000
vt 0.750000 0.500000
vt 0.500000 1.000000
vn 0.886014 -0.350676 0.303325
vn 0.886014 -0.350676 0.303325
vn 0.886014 -0.350676 0.303325
vn -0.633002 -0.763878 -0.125690
vn -0.633002 -0.763878 -0.125690
vn -0.633002 -0.763878 -0.125690
vn -0.325597 0.605946 0.725821
vn -0.325597 0.605946 0.725820
vn -0.325597 0.605946 0.725821
vn 0.164413 0.462660 -0.871157
vn 0.164413 0.462660 -0.871157
vn 0.164413 0.462660 -0.871157
s off
g pasted__pCone1 pasted__group1 group3
usemtl blinn1SG
f 37/73/97 39/75/98 38/74/99
f 37/76/100 38/77/101 40/80/102
f 38/77/103 39/78/104 40/80/105
f 39/78/106 37/79/107 40/80/108
g default
v 0.112021 -0.353457 0.342554
v 0.070556 -0.341333 0.477691
v 0.135514 -0.232811 0.413411
v -0.042180 -0.292426 0.289763
v -0.083645 -0.280301 0.424901
v -0.018687 -0.171779 0.360621
v 0.222843 -0.355434 0.451209
v -0.146972 -0.209064 0.324604
vt 0.421875 0.020934
vt 0.421875 0.291566
vt 0.656250 0.156250
vt 0.375000 0.312500
vt 0.458333 0.312500
vt 0.541667 0.312500
vt 0.625000 0.312500
vt 0.375000 0.688440
vt 0.458333 0.688440
vt 0.541667 0.688440
vt 0.625000 0.688440
vt 0.421875 0.708434
vt 0.421875 0.979066
vt 0.656250 0.843750
vt 0.500000 0.150000
vt 0.500000 0.837500
vn -0.359946 -0.932589 -0.026769
vn -0.359946 -0.932589 -0.026769
vn -0.359946 -0.932589 -0.026769
vn -0.359946 -0.932589 -0.026769
vn -0.073136 0.540307 0.838283
vn -0.073136 0.540307 0.838283
vn -0.073136 0.540307 0.838283
vn -0.073136 0.540307 0.838283
vn 0.433082 0.392282 -0.811514
vn 0.433082 0.392282 -0.811514
vn 0.433082 0.392282 -0.811514
vn 0.433082 0.392282 -0.811514
vn 0.099711 -0.518271 0.849384
vn 0.529698 -0.644006 -0.551975
vn 0.886014 -0.350676 0.303325
vn 0.773318 0.607090 0.182812
vn -0.465579 -0.227853 -0.855172
vn -0.873558 -0.108553 0.474461
vn -0.886014 0.350676 -0.303324
vn -0.234428 0.959209 -0.157994
s off
g pasted__group1 group3 pasted__pCylinder1
usemtl blinn1SG
f 41/84/109 42/85/110 45/89/111 44/88/112
f 42/85/113 43/86/114 46/90/115 45/89/116
f 43/86/117 41/87/118 44/91/119 46/90/120
s 1
f 42/82/121 41/81/122 47/95/123
f 43/83/124 42/82/121 47/95/123
f 41/81/122 43/83/124 47/95/123
s 2
f 44/93/125 45/92/126 48/96/127
f 45/92/126 46/94/128 48/96/127
f 46/94/128 44/93/125 48/96/127
g default
v 0.272320 0.152017 0.528254
v 0.133858 0.001618 0.571564
v 0.070311 0.206528 0.575849
v 0.106277 0.113783 0.368768
vt 0.375000 0.033494
vt 0.375000 0.466506
vt 0.750000 0.250000
vt 0.250000 0.500000
vt 0.416667 0.500000
vt 0.583333 0.500000
vt 0.750000 0.500000
vt 0.500000 1.000000
vn 0.243051 0.055123 0.968446
vn 0.243051 0.055123 0.968446
vn 0.243051 0.055123 0.968446
vn 0.588005 -0.671285 -0.451250
vn 0.588005 -0.671285 -0.451250
vn 0.588004 -0.671285 -0.451250
vn -0.954786 -0.295396 -0.033528
vn -0.954786 -0.295396 -0.033528
vn -0.954786 -0.295396 -0.033528
vn 0.156131 0.911289 -0.381019
vn 0.156131 0.911289 -0.381019
vn 0.156131 0.911289 -0.381019
s off
g group3 pasted__pasted__pCone1 pasted__pasted__group1 pasted__group
usemtl blinn1SG
f 49/97/129 51/99/130 50/98/131
f 49/100/132 50/101/133 52/104/134
f 50/101/135 51/102/136 52/104/137
f 51/102/138 49/103/139 52/104/140
g default
v 0.163499 0.132913 0.275872
v 0.069492 0.030803 0.305277
v 0.029452 0.166891 0.307580
v 0.121198 0.123320 0.107324
v 0.027192 0.021209 0.136729
v -0.012849 0.157297 0.139032
v 0.119525 0.117470 0.423924
v 0.018077 0.094462 0.019702
vt 0.421875 0.020934
vt 0.421875 0.291566
vt 0.656250 0.156250
vt 0.375000 0.312500
vt 0.458333 0.312500
vt 0.541667 0.312500
vt 0.625000 0.312500
vt 0.375000 0.688440
vt 0.458333 0.688440
vt 0.541667 0.688440
vt 0.625000 0.688440
vt 0.421875 0.708434
vt 0.421875 0.979066
vt 0.656250 0.843750
vt 0.500000 0.150000
vt 0.500000 0.837500
vn 0.708437 -0.692070 -0.138405
vn 0.708437 -0.692070 -0.138405
vn 0.708437 -0.692070 -0.138405
vn 0.708437 -0.692070 -0.138405
vn -0.928050 -0.277263 0.248695
vn -0.928050 -0.277263 0.248695
vn -0.928050 -0.277263 0.248695
vn -0.928050 -0.277263 0.248695
vn 0.219612 0.969333 -0.110290
vn 0.219612 0.969333 -0.110290
vn 0.219612 0.969333 -0.110290
vn 0.219612 0.969333 -0.110290
vn -0.058276 -0.794273 0.604759
vn 0.916562 0.264601 0.299834
vn 0.243051 0.055123 0.968446
vn -0.473490 0.616942 0.628641
vn 0.604062 0.190824 -0.773754
vn -0.320880 -0.813854 -0.484435
vn -0.243051 -0.055123 -0.968446
vn -0.714842 0.525132 -0.461776
s off
g group3 pasted__pasted__group1 pasted__group pasted__pasted__pCylinder1
usemtl blinn1SG
f 53/108/141 54/109/142 57/113/143 56/112/144
f 54/109/145 55/110/146 58/114/147 57/113/148
f 55/110/149 53/111/150 56/115/151 58/114/152
s 1
f 54/106/153 53/105/154 59/119/155
f 55/107/156 54/106/153 59/119/155
f 53/105/154 55/107/156 59/119/155
s 2
f 56/117/157 57/116/158 60/120/159
f 57/116/158 58/118/160 60/120/159
f 58/118/160 56/117/157 60/120/159
g default
v -0.305151 0.004603 0.148308
v -0.128982 -0.033533 0.254033
v -0.205558 0.166807 0.247381
v -0.318043 0.017551 0.380976
vt 0.375000 0.033494
vt 0.375000 0.466506
vt 0.750000 0.250000
vt 0.250000 0.500000
vt 0.416667 0.500000
vt 0.583333 0.500000
vt 0.750000 0.500000
vt 0.500000 1.000000
vn 0.534330 0.176788 -0.826582
vn 0.534330 0.176788 -0.826582
vn 0.534330 0.176788 -0.826582
vn -0.234858 -0.971163 0.041034
vn -0.234858 -0.971163 0.041034
vn -0.234858 -0.971163 0.041034
vn 0.585370 0.249362 0.771466
vn 0.585370 0.249362 0.771466
vn 0.585370 0.249362 0.771466
vn -0.828073 0.555337 -0.076788
vn -0.828073 0.555337 -0.076788
vn -0.828072 0.555337 -0.076788
s off
g group3 pasted__pasted__pCone1 pasted__pasted__group1 pasted__group2
usemtl blinn1SG
f 61/121/161 63/123/162 62/122/163
f 61/124/164 62/125/165 64/128/166
f 62/125/167 63/126/168 64/128/169
f 63/126/170 61/127/171 64/128/172
g default
v -0.420388 -0.021600 0.397181
v -0.300782 -0.047492 0.468961
v -0.353040 0.084289 0.463364
v -0.513382 -0.052368 0.541039
v -0.393776 -0.078260 0.612819
v -0.446034 0.053521 0.607222
v -0.287623 0.028373 0.334191
v -0.510648 -0.045416 0.679200
vt 0.421875 0.020934
vt 0.421875 0.291566
vt 0.656250 0.156250
vt 0.375000 0.312500
vt 0.458333 0.312500
vt 0.541667 0.312500
vt 0.625000 0.312500
vt 0.375000 0.688440
vt 0.458333 0.688440
vt 0.541667 0.688440
vt 0.625000 0.688440
vt 0.421875 0.708434
vt 0.421875 0.979066
vt 0.656250 0.843750
vt 0.500000 0.150000
vt 0.500000 0.837500
vn -0.061406 -0.967182 -0.246553
vn -0.061406 -0.967182 -0.246553
vn -0.061406 -0.967182 -0.246553
vn -0.061406 -0.967182 -0.246553
vn 0.760799 0.325543 0.561432
vn 0.760799 0.325543 0.561432
vn 0.760799 0.325543 0.561432
vn 0.760799 0.325543 0.561432
vn -0.699394 0.641639 -0.314879
vn -0.699394 0.641639 -0.314879
vn -0.699394 0.641639 -0.314879
vn -0.699394 0.641639 -0.314879
vn 0.876055 -0.451720 -0.168750
vn -0.364251 -0.183224 -0.913099
vn 0.534330 0.176788 -0.826582
vn 0.334141 0.914832 -0.226787
vn -0.929480 -0.367026 0.036859
vn 0.247343 -0.621779 0.743110
vn -0.534330 -0.176788 0.826582
vn -0.266835 0.674829 0.688044
s off
g group3 pasted__pasted__group1 pasted__group2 pasted__pasted__pCylinder1
usemtl blinn1SG
f 65/132/173 66/133/174 69/137/175 68/136/176
f 66/133/177 67/134/178 70/138/179 69/137/180
f 67/134/181 65/135/182 68/139/183 70/138/184
s 1
f 66/130/185 65/129/186 71/143/187
f 67/131/188 66/130/185 71/143/187
f 65/129/186 67/131/188 71/143/187
s 2
f 68/141/189 69/140/190 72/144/191
f 69/140/190 70/142/192 72/144/191
f 70/142/192 68/141/189 72/144/191
g default
v 0.417409 -0.265237 -0.510241
v 0.443581 -0.284938 -0.303856
v 0.431597 -0.088502 -0.389377
v 0.235537 -0.207481 -0.375872
vt 0.375000 0.033494
vt 0.375000 0.466506
vt 0.750000 0.250000
vt 0.250000 0.500000
vt 0.416667 0.500000
vt 0.583333 0.500000
vt 0.750000 0.500000
vt 0.500000 1.000000
vn 0.992109 0.006003 -0.125236
vn 0.992109 0.006003 -0.125236
vn 0.992109 0.006003 -0.125236
vn -0.334034 -0.941363 -0.047502
vn -0.334034 -0.941363 -0.047502
vn -0.334034 -0.941363 -0.047502
vn -0.170862 0.384522 0.907165
vn -0.170862 0.384522 0.907165
vn -0.170862 0.384522 0.907165
vn -0.380842 0.542589 -0.748703
vn -0.380842 0.542589 -0.748703
vn -0.380842 0.542589 -0.748703
s off
g pasted__pasted__pCone1 pasted__pasted__group1 pasted__group3 group4
usemtl blinn1SG
f 73/145/193 75/147/194 74/146/195
f 73/148/196 74/149/197 76/152/198
f 74/149/199 75/150/200 76/152/201
f 75/150/202 73/151/203 76/152/204
g default
v 0.152006 -0.241220 -0.440326
v 0.169775 -0.254596 -0.300205
v 0.161613 -0.125590 -0.358681
v -0.020660 -0.242265 -0.418530
v -0.002891 -0.255640 -0.278409
v -0.011053 -0.126635 -0.336885
v 0.291932 -0.206344 -0.382915
v -0.122167 -0.208849 -0.330643
vt 0.421875 0.020934
vt 0.421875 0.291566
vt 0.656250 0.156250
vt 0.375000 0.312500
vt 0.458333 0.312500
vt 0.541667 0.312500
vt 0.625000 0.312500
vt 0.375000 0.688440
vt 0.458333 0.688440
vt 0.541667 0.688440
vt 0.625000 0.688440
vt 0.421875 0.708434
vt 0.421875 0.979066
vt 0.656250 0.843750
vt 0.500000 0.150000
vt 0.500000 0.837500
vn -0.005879 -0.995528 -0.094286
vn -0.005879 -0.995528 -0.094286
vn -0.005879 -0.995528 -0.094286
vn -0.005879 -0.995528 -0.094286
vn 0.111402 0.416117 0.902461
vn 0.111402 0.416117 0.902461
vn 0.111402 0.416117 0.902461
vn 0.111402 0.416117 0.902461
vn -0.105524 0.579411 -0.808175
vn -0.105524 0.579411 -0.808175
vn -0.105524 0.579411 -0.808175
vn -0.105524 0.579411 -0.808175
vn 0.613198 -0.488991 0.620383
vn 0.428939 -0.350287 -0.832653
vn 0.992109 0.006003 -0.125236
vn 0.528559 0.848781 0.013997
vn -0.677113 -0.338917 -0.653187
vn -0.502285 -0.470523 0.725478
vn -0.992109 -0.006003 0.125236
vn -0.582592 0.798779 0.150129
s off
g pasted__pasted__group1 pasted__group3 group4 pasted__pasted__pCylinder1
usemtl blinn1SG
f 77/156/205 78/157/206 81/161/207 80/160/208
f 78/157/209 79/158/210 82/162/211 81/161/212
f 79/158/213 77/159/214 80/163/215 82/162/216
s 1
f 78/154/217 77/153/218 83/167/219
f 79/155/220 78/154/217 83/167/219
f 77/153/218 79/155/220 83/167/219
s 2
f 80/165/221 81/164/222 84/168/223
f 81/164/222 82/166/224 84/168/223
f 82/166/224 80/165/221 84/168/223
g default
v 0.197772 0.274257 -0.221524
v 0.148933 0.079328 -0.164208
v 0.029094 0.242365 -0.092779
v 0.003180 0.183972 -0.313452
vt 0.375000 0.033494
vt 0.375000 0.466506
vt 0.750000 0.250000
vt 0.250000 0.500000
vt 0.416667 0.500000
vt 0.583333 0.500000
vt 0.750000 0.500000
vt 0.500000 1.000000
vn 0.594098 0.086305 0.799749
vn 0.594098 0.086305 0.799750
vn 0.594098 0.086305 0.799749
vn 0.529573 -0.358704 -0.768690
vn 0.529573 -0.358704 -0.768690
vn 0.529573 -0.358704 -0.768690
vn -0.722455 -0.642714 0.254908
vn -0.722455 -0.642714 0.254908
vn -0.722455 -0.642714 0.254908
vn -0.330611 0.921245 -0.204949
vn -0.330611 0.921245 -0.204949
vn -0.330611 0.921245 -0.204949
s off
g pasted__group3 group4 pasted__pasted__pasted__pCone1 pasted__pasted__pasted__group1 pasted__pasted__group
usemtl blinn1SG
f 85/169/225 87/171/226 86/170/227
f 85/172/228 86/173/229 88/176/230
f 86/173/231 87/174/232 88/176/233
f 87/174/234 85/175/235 88/176/236
g default
v 0.006108 0.229621 -0.414336
v -0.027050 0.097278 -0.375422
v -0.105040 0.206436 -0.329266
v -0.097288 0.214601 -0.553524
v -0.130446 0.082258 -0.514610
v -0.208437 0.191416 -0.468454
v 0.036333 0.189157 -0.267568
v -0.211639 0.153134 -0.601378
vt 0.421875 0.020934
vt 0.421875 0.291566
vt 0.656250 0.156250
vt 0.375000 0.312500
vt 0.458333 0.312500
vt 0.541667 0.312500
vt 0.625000 0.312500
vt 0.375000 0.688440
vt 0.458333 0.688440
vt 0.541667 0.688440
vt 0.625000 0.688440
vt 0.421875 0.708434
vt 0.421875 0.979066
vt 0.656250 0.843750
vt 0.500000 0.150000
vt 0.500000 0.837500
vn 0.769692 -0.349862 -0.534014
vn 0.769692 -0.349862 -0.534014
vn 0.769692 -0.349862 -0.534014
vn 0.769692 -0.349862 -0.534014
vn -0.587248 -0.632913 0.504541
vn -0.587248 -0.632913 0.504541
vn -0.587248 -0.632913 0.504541
vn -0.587248 -0.632913 0.504541
vn -0.182444 0.982774 0.029473
vn -0.182444 0.982774 0.029473
vn -0.182444 0.982774 0.029473
vn -0.182444 0.982774 0.029473
vn 0.468493 -0.789235 0.397017
vn 0.812339 0.583150 -0.006511
vn 0.594098 0.086305 0.799750
vn -0.340263 0.342723 0.875650
vn 0.121578 0.458995 -0.880081
vn -0.204668 -0.843147 -0.497207
vn -0.594098 -0.086305 -0.799749
vn -0.972030 0.230874 -0.043071
s off
g pasted__group3 group4 pasted__pasted__pasted__group1 pasted__pasted__group pasted__pasted__pasted__pCylinder1
usemtl blinn1SG
f 89/180/237 90/181/238 93/185/239 92/184/240
f 90/181/241 91/182/242 94/186/243 93/185/244
f 91/182/245 89/183/246 92/187/247 94/186/248
s 1
f 90/178/249 89/177/250 95/191/251
f 91/179/252 90/178/249 95/191/251
f 89/177/250 91/179/252 95/191/251
s 2
f 92/189/253 93/188/254 96/192/255
f 93/188/254 94/190/256 96/192/255
f 94/190/256 92/189/253 96/192/255
g default
v -0.400744 -0.063717 -0.386190
v -0.194868 -0.036301 -0.363148
v -0.328793 0.118114 -0.297844
v -0.318118 -0.071140 -0.168048
vt 0.375000 0.033494
vt 0.375000 0.466506
vt 0.750000 0.250000
vt 0.250000 0.500000
vt 0.416667 0.500000
vt 0.583333 0.500000
vt 0.750000 0.500000
vt 0.500000 1.000000
vn 0.045134 0.422066 -0.905441
vn 0.045134 0.422066 -0.905441
vn 0.045134 0.422066 -0.905441
vn 0.141061 -0.986172 -0.086989
vn 0.141061 -0.986172 -0.086989
vn 0.141061 -0.986172 -0.086989
vn 0.735957 0.410666 0.538257
vn 0.735957 0.410666 0.538257
vn 0.735957 0.410666 0.538257
vn -0.915834 0.190702 0.353384
vn -0.915834 0.190702 0.353384
vn -0.915834 0.190702 0.353384
s off
g pasted__group3 group4 pasted__pasted__pasted__pCone1 pasted__pasted__pasted__group1 pasted__pasted__group2
usemtl blinn1SG
f 97/193/257 99/195/258 98/194/259
f 97/196/260 98/197/261 100/200/262
f 98/197/263 99/198/264 100/200/265
f 99/198/266 97/199/267 100/200/268
g default
v -0.384752 -0.148123 -0.124420
v -0.244976 -0.129510 -0.108776
v -0.335178 -0.028602 -0.066235
v -0.392607 -0.221579 0.033162
v -0.252831 -0.202966 0.048806
v -0.343033 -0.102058 0.091348
v -0.315685 -0.046433 -0.219184
v -0.334523 -0.222600 0.158740
vt 0.421875 0.020934
vt 0.421875 0.291566
vt 0.656250 0.156250
vt 0.375000 0.312500
vt 0.458333 0.312500
vt 0.541667 0.312500
vt 0.625000 0.312500
vt 0.375000 0.688440
vt 0.458333 0.688440
vt 0.541667 0.688440
vt 0.625000 0.688440
vt 0.421875 0.708434
vt 0.421875 0.979066
vt 0.656250 0.843750
vt 0.500000 0.150000
vt 0.500000 0.837500
vn 0.165331 -0.897022 -0.409900
vn 0.165331 -0.897022 -0.409900
vn 0.165331 -0.897022 -0.409900
vn 0.165331 -0.897022 -0.409900
vn 0.770547 0.562130 0.300444
vn 0.770547 0.562130 0.300444
vn 0.770547 0.562130 0.300444
vn 0.770547 0.562130 0.300444
vn -0.935878 0.334891 0.109456
vn -0.935878 0.334891 0.109456
vn -0.935878 0.334891 0.109456
vn -0.935878 0.334891 0.109456
vn 0.818765 -0.061724 -0.570802
vn -0.630694 -0.254744 -0.733029
vn 0.045134 0.422066 -0.905441
vn -0.116615 0.984678 -0.129654
vn -0.647732 -0.702905 0.293884
vn 0.727539 -0.519765 0.447808
vn -0.045134 -0.422066 0.905441
vn -0.159966 0.473079 0.866376
s off
g pasted__group3 group4 pasted__pasted__pasted__group1 pasted__pasted__group2 pasted__pasted__pasted__pCylinder1
usemtl blinn1SG
f 101/204/269 102/205/270 105/209/271 104/208/272
f 102/205/273 103/206/274 106/210/275 105/209/276
f 103/206/277 101/207/278 104/211/279 106/210/280
s 1
f 102/202/281 101/201/282 107/215/283
f 103/203/284 102/202/281 107/215/283
f 101/201/282 103/203/284 107/215/283
s 2
f 104/213/285 105/212/286 108/216/287
f 105/212/286 106/214/288 108/216/287
f 106/214/288 104/213/285 108/216/287
